/* XPM */
static char * assignment_xpm[] = {
"16 16 83 1",
" 	c None",
".	c #DD9012",
"+	c #F6C838",
"@	c #F5CD39",
"#	c #DD9312",
"$	c #EDB22E",
"%	c #F9CF41",
"&	c #E1A61C",
"*	c #E3B021",
"=	c #EDBE30",
"-	c #F0AD21",
";	c #F8B42E",
">	c #F4AE2A",
",	c #EBAB29",
"'	c #F9C03A",
")	c #FCCB3C",
"!	c #FDD640",
"~	c #FDCA3E",
"{	c #EFAE2D",
"]	c #E99512",
"^	c #F69E19",
"/	c #F39C17",
"(	c #E08A0A",
"_	c #FBB929",
":	c #D5A84D",
"<	c #D4CAB5",
"[	c #D9AB4D",
"}	c #FAB931",
"|	c #E09213",
"1	c #EA8806",
"2	c #CE7600",
"3	c #DD8D0B",
"4	c #F8B826",
"5	c #C8A059",
"6	c #C8CDD6",
"7	c #F7F6F6",
"8	c #DBD5CC",
"9	c #F1AD30",
"0	c #DF8D0B",
"a	c #EC950D",
"b	c #B67A1C",
"c	c #B0AFAD",
"d	c #F6F5F5",
"e	c #DBDCDE",
"f	c #B7A589",
"g	c #F5A11E",
"h	c #F7A41A",
"i	c #41454A",
"j	c #6D6D6D",
"k	c #C4C5C6",
"l	c #B5A288",
"m	c #F39610",
"n	c #F29511",
"o	c #F29612",
"p	c #DF8708",
"q	c #454545",
"r	c #555555",
"s	c #383B3E",
"t	c #895818",
"u	c #F18E0D",
"v	c #D97F03",
"w	c #414141",
"x	c #515151",
"y	c #3A3A3A",
"z	c #0B111A",
"A	c #F68C00",
"B	c #DC7E02",
"C	c #3D3D3D",
"D	c #4E4E4E",
"E	c #383838",
"F	c #181818",
"G	c #494949",
"H	c #323232",
"I	c #171717",
"J	c #353535",
"K	c #474747",
"L	c #313131",
"M	c #434343",
"N	c #2D2D2D",
"O	c #202020",
"P	c #2B2B2B",
"Q	c #292929",
"R	c #151515",
"                ",
"  .+@#   $%& *= ",
"  -;>    ,')!~{ ",
"  ]^/(   _:<[}| ",
"   12  34567890 ",
"       abcdefgh ",
"        ijklmnop",
"       qrstuv   ",
"      wxyzAB    ",
"     CDEF       ",
"    yGHI        ",
"   JKLI         ",
"  LMNI          ",
" OPQR           ",
"  O             ",
"                "};
